<?xml version="1.0" encoding="utf-8"?>
<!-- Generator: Adobe Illustrator 23.1.1, SVG Export Plug-In . SVG Version: 6.00 Build 0)  -->
<svg version="1.1" id="Ebene_1" xmlns="http://www.w3.org/2000/svg" xmlns:xlink="http://www.w3.org/1999/xlink" x="0px" y="0px"
	 viewBox="0 0 1000 200" style="enable-background:new 0 0 1000 200;" xml:space="preserve">
<style type="text/css">
	.st0{fill:#339B80;}
	.st1{fill:#4D4D4D;}
</style>
<g>
	<g>
		<g>
			<path class="st0" d="M107.5,5.16C66.36,5.28,31.39,31.39,18.07,67.9l179.36-0.13C184.01,31.13,148.78,5.04,107.5,5.16z
				 M75.05,50.24c-4.46,0.63-8.6-2.49-9.22-6.97c-0.63-4.47,2.49-8.6,6.96-9.23c4.46-0.63,8.6,2.5,9.23,6.97
				C82.65,45.49,79.53,49.62,75.05,50.24z M144.97,50.09c-4.48,0.62-8.6-2.5-9.23-6.97c-0.64-4.47,2.49-8.61,6.96-9.23
				c4.46-0.62,8.59,2.5,9.23,6.97C152.55,45.33,149.43,49.46,144.97,50.09z"/>
			<path class="st0" d="M199.59,74.38L15.93,74.51c-2.38,8.38-3.64,17.23-3.62,26.38c0.15,52.72,43.01,95.34,95.74,95.19
				c52.72-0.15,95.34-43.01,95.19-95.74C203.22,91.34,201.94,82.63,199.59,74.38z M199.33,85.44c-3.64,16.73-7.28,33.45-10.92,50.18
				c-1.36,6.28-2.68,12.57-4.09,18.85c-0.78,3.44-3.71,4.31-6.31,1.86c-0.59-0.55-1.21-1.2-1.85-1.85l-9.91-9.95
				c-21.12,15.11-44.57,19.07-69.43,15.96c-24.86-3.11-46.19-13.41-63.25-33.04c0.23,0.9,0.28,1.18,0.37,1.45
				c0.24,0.59,0.48,1.22,0.74,1.85c4.44,10.88,11.84,20.31,21.35,27.21c21.89,16.06,46.59,20.53,73.04,16.79
				c4.35-0.6,8.64-1.77,13.04-2.7c-24.06,16.87-61.35,19.65-90.86-0.53c-30.92-21.17-38.72-56.08-34.74-77.86
				c0.31,0.59,0.55,1.02,0.85,1.46c4.95,10.24,12.78,18.8,22.52,24.66c10.77,6.46,22.93,10.23,35.47,11.06
				c15.75,1.46,31.62-1.24,46.01-7.83c5.07-2.33,9.78-5.36,13.97-9.02c-3.99-3.97-7.83-7.83-11.74-11.65
				c-1.3-0.95-1.9-2.58-1.56-4.16c0.58-1.54,2.04-2.56,3.68-2.59L194.2,80.3C198.62,79.31,200.31,80.97,199.33,85.44z"/>
		</g>
	</g>
	<g>
		<g>
			<g>
				<path class="st1" d="M285.69,116.71l-20.38,72.49h-24.09L208.1,74.1h26.87l18.76,70.41l19.22-70.41h25.25l18.99,70.18
					c3.09-11.73,6.29-23.59,9.61-35.55c3.32-11.96,6.52-23.51,9.61-34.63h26.63l-32.89,115.11h-24.32L285.69,116.71z"/>
				<path class="st1" d="M381.11,139.64c1.08,7.72,3.97,14.24,8.68,19.57c4.71,5.33,10.54,7.99,17.49,7.99
					c12.35,0,21-6.95,25.94-20.85h24.32c-1.55,7.1-3.98,13.43-7.3,18.99c-3.32,5.56-7.22,10.27-11.7,14.13
					c-4.48,3.86-9.38,6.8-14.71,8.8c-5.33,2.01-10.85,3.01-16.56,3.01c-8.19,0-15.56-1.66-22.12-4.98
					c-6.56-3.32-12.16-7.76-16.79-13.32c-4.63-5.56-8.19-12.04-10.65-19.46c-2.47-7.41-3.71-15.21-3.71-23.39
					c0-7.72,1.23-15.05,3.71-22c2.47-6.95,6.02-13.09,10.65-18.41c4.63-5.33,10.19-9.57,16.68-12.74c6.48-3.16,13.82-4.75,22-4.75
					c7.87,0,14.97,1.43,21.31,4.28c6.33,2.86,11.73,6.76,16.21,11.7c4.48,4.94,7.91,10.85,10.31,17.72
					c2.39,6.87,3.59,14.32,3.59,22.35v11.35H381.11z M431.37,117.18c-1.24-5.87-4.05-10.81-8.45-14.82
					c-4.4-4.01-10.07-6.02-17.02-6.02c-6.18,0-11.46,2.05-15.87,6.14c-4.4,4.09-7.3,9-8.69,14.71H431.37z"/>
				<path class="st1" d="M460.78,32.17h26.17v49.33c3.71-2.93,7.64-5.21,11.81-6.83c4.17-1.62,8.26-2.43,12.27-2.43
					c8.03,0,15.05,1.54,21.08,4.63c6.02,3.09,11.08,7.34,15.17,12.74c4.09,5.41,7.14,11.74,9.15,18.99c2,7.26,3.01,15.05,3.01,23.39
					c0,8.19-1.04,15.9-3.13,23.16c-2.08,7.26-5.18,13.59-9.27,18.99c-4.09,5.41-9.19,9.65-15.28,12.74
					c-6.1,3.09-13.17,4.63-21.19,4.63c-8.65,0-16.52-2.93-23.62-8.8v6.48h-26.17V32.17z M486.95,132c0,4.94,0.5,9.54,1.51,13.78
					c1,4.25,2.51,7.95,4.52,11.12c2,3.17,4.44,5.67,7.29,7.53c2.85,1.85,6.14,2.78,9.84,2.78c3.71,0,7.02-0.93,9.96-2.78
					c2.93-1.85,5.4-4.36,7.41-7.53c2-3.16,3.55-6.87,4.63-11.12c1.08-4.24,1.62-8.84,1.62-13.78c0-4.94-0.54-9.57-1.62-13.9
					c-1.08-4.32-2.63-8.11-4.63-11.35c-2.01-3.24-4.48-5.79-7.41-7.64c-2.94-1.85-6.25-2.78-9.96-2.78c-3.71,0-6.95,0.89-9.73,2.66
					c-2.78,1.78-5.18,4.21-7.18,7.3c-2.01,3.09-3.51,6.68-4.52,10.77c-1.01,4.09-1.58,8.45-1.74,13.09V132z"/>
			</g>
			<path class="st0" d="M593.02,32.17v52.11c8.18-8.03,17.91-12.04,29.18-12.04c5.71,0,11,0.93,15.87,2.78
				c4.86,1.85,9.03,4.4,12.51,7.64c3.47,3.24,6.17,7.1,8.11,11.58c1.93,4.48,2.89,9.34,2.89,14.59v80.37h-25.94v-77.59
				c0-5.56-1.74-9.5-5.21-11.81c-3.47-2.32-7.45-3.47-11.93-3.47c-3.09,0-6.14,0.62-9.15,1.85c-3.01,1.24-5.71,2.93-8.11,5.09
				c-2.4,2.16-4.36,4.71-5.91,7.64c-1.54,2.93-2.32,6.1-2.32,9.5v68.79h-25.94V32.17H593.02z"/>
			<path class="st0" d="M692.38,139.64c1.08,7.72,3.97,14.24,8.69,19.57c4.71,5.33,10.54,7.99,17.49,7.99
				c12.35,0,21-6.95,25.94-20.85h24.32c-1.54,7.1-3.98,13.43-7.29,18.99c-3.32,5.56-7.22,10.27-11.7,14.13
				c-4.48,3.86-9.38,6.8-14.71,8.8c-5.33,2.01-10.85,3.01-16.56,3.01c-8.19,0-15.56-1.66-22.12-4.98
				c-6.57-3.32-12.16-7.76-16.79-13.32c-4.63-5.56-8.19-12.04-10.65-19.46c-2.47-7.41-3.71-15.21-3.71-23.39
				c0-7.72,1.23-15.05,3.71-22c2.47-6.95,6.02-13.09,10.65-18.41c4.63-5.33,10.19-9.57,16.68-12.74c6.49-3.16,13.82-4.75,22-4.75
				c7.87,0,14.98,1.43,21.31,4.28c6.33,2.86,11.73,6.76,16.21,11.7c4.48,4.94,7.91,10.85,10.31,17.72
				c2.39,6.87,3.59,14.32,3.59,22.35v11.35H692.38z M742.64,117.18c-1.24-5.87-4.05-10.81-8.45-14.82
				c-4.4-4.01-10.07-6.02-17.02-6.02c-6.18,0-11.46,2.05-15.86,6.14c-4.4,4.09-7.3,9-8.69,14.71H742.64z"/>
			<path class="st0" d="M774.83,112.54c0.46-6.95,2.12-12.97,4.98-18.07c2.86-5.09,6.49-9.26,10.89-12.51
				c4.4-3.24,9.26-5.67,14.59-7.3c5.33-1.62,10.69-2.43,16.1-2.43c5.87,0,11.54,0.66,17.02,1.97c5.48,1.31,10.34,3.4,14.59,6.25
				c4.24,2.86,7.64,6.6,10.19,11.23c2.55,4.63,3.82,10.19,3.82,16.68v55.12c0,0.93,0.23,1.78,0.69,2.55c0.46,0.77,1,1.16,1.62,1.16
				c0.31,0,1.35-0.27,3.13-0.81c1.77-0.54,4.21-1.19,7.3-1.97v23.62c-3.55,1.23-6.53,2.09-8.92,2.55c-2.4,0.46-4.83,0.69-7.3,0.69
				c-4.48,0-8.34-1.08-11.58-3.24c-3.24-2.16-5.71-5.71-7.41-10.65c-6.02,6.02-11.93,9.84-17.72,11.46
				c-5.79,1.62-11.85,2.43-18.18,2.43c-5.09,0-9.84-0.81-14.24-2.43c-4.4-1.62-8.22-3.94-11.46-6.95c-3.24-3.01-5.79-6.68-7.64-11
				c-1.85-4.32-2.78-9.11-2.78-14.36c0-5.87,1.7-10.77,5.09-14.71c3.39-3.94,7.6-7.22,12.62-9.84c5.02-2.62,10.5-4.78,16.44-6.49
				c5.94-1.7,11.43-3.36,16.44-4.98c5.02-1.62,9.22-3.36,12.62-5.21c3.39-1.85,5.1-4.17,5.1-6.95c0-4.17-1.74-7.22-5.21-9.15
				c-3.47-1.93-8.38-2.89-14.71-2.89c-4.94,0-9.23,1.24-12.85,3.71c-3.63,2.47-5.91,6.64-6.83,12.51H774.83z M840.84,134.78
				c-1.55,1.08-3.67,2.05-6.37,2.89c-2.7,0.85-5.64,1.74-8.8,2.66c-3.17,0.93-6.37,1.85-9.61,2.78c-3.24,0.93-6.18,1.97-8.8,3.13
				c-2.63,1.16-4.75,2.51-6.37,4.05c-1.62,1.54-2.43,3.32-2.43,5.33c0,4.17,1.31,7.14,3.94,8.92c2.62,1.78,5.48,2.66,8.57,2.66
				c5.4,0,10.73-1.66,15.98-4.98c5.25-3.32,9.88-8.37,13.9-15.17V134.78z"/>
			<path class="st0" d="M978.88,189.21h-25.71v-10.42c-3.71,4.94-7.57,8.3-11.58,10.07c-4.02,1.77-8.19,2.66-12.51,2.66
				c-7.87,0-14.86-1.55-20.96-4.63c-6.1-3.09-11.23-7.33-15.4-12.74c-4.17-5.4-7.3-11.73-9.38-18.99
				c-2.09-7.26-3.13-14.98-3.13-23.16c0-8.34,1.04-16.13,3.13-23.39c2.08-7.26,5.13-13.59,9.15-18.99
				c4.01-5.4,9.07-9.65,15.17-12.74c6.1-3.09,13.09-4.63,20.96-4.63c4.01,0,8.18,0.93,12.51,2.78c4.32,1.85,8.34,5.18,12.04,9.96
				V32.17h25.71V189.21z M953.17,130.15c-0.16-4.63-0.78-8.99-1.85-13.09c-1.08-4.09-2.59-7.68-4.52-10.77
				c-1.93-3.09-4.32-5.52-7.18-7.3c-2.86-1.77-6.14-2.66-9.84-2.66c-3.71,0-7.03,0.93-9.96,2.78c-2.94,1.85-5.37,4.4-7.29,7.64
				c-1.93,3.24-3.44,7.03-4.52,11.35c-1.08,4.32-1.62,8.96-1.62,13.9c0,4.94,0.54,9.54,1.62,13.78c1.08,4.25,2.58,7.95,4.52,11.12
				c1.93,3.17,4.36,5.67,7.29,7.53c2.93,1.85,6.25,2.78,9.96,2.78c3.71,0,7.02-0.93,9.96-2.78c2.93-1.85,5.36-4.36,7.29-7.53
				c1.93-3.16,3.43-6.87,4.52-11.12c1.08-4.24,1.62-8.84,1.62-13.78V130.15z"/>
		</g>
	</g>
</g>
</svg>
